<?xml version="1.0" encoding="UTF-8"?> <!-- Generator: Adobe Illustrator 24.1.0, SVG Export Plug-In . SVG Version: 6.00 Build 0) --> <svg xmlns="http://www.w3.org/2000/svg" xmlns:xlink="http://www.w3.org/1999/xlink" version="1.1" id="Layer_1" x="0px" y="0px" viewBox="0 0 85 85" style="enable-background:new 0 0 85 85;" xml:space="preserve"> <style type="text/css"> .st0{fill:none;stroke:#000000;stroke-width:1.82;stroke-linecap:round;stroke-linejoin:round;stroke-miterlimit:10;} </style> <path d="M84.7,44.9C84.7,44.9,84.7,44.8,84.7,44.9c0-0.1,0-0.2-0.1-0.3c0,0,0-0.1,0-0.1c0-0.1-0.1-0.1-0.1-0.2c0,0-0.1-0.1-0.1-0.1 c-0.1,0-0.1-0.1-0.2-0.1c0,0-0.1,0-0.1-0.1c0,0,0,0,0,0l-20-6.1V12.2c0,0,0,0,0,0s0,0,0,0v0c0,0,0,0,0,0c0-0.1,0-0.2-0.1-0.3 c0,0,0-0.1,0-0.1c0-0.1-0.1-0.1-0.1-0.2c0,0-0.1-0.1-0.1-0.1c-0.1,0-0.1-0.1-0.2-0.1c0,0-0.1,0-0.1-0.1c0,0,0,0,0,0L42.8,5.1 c-0.2-0.1-0.4-0.1-0.5,0l-20.6,6.3c0,0,0,0,0,0c0,0-0.1,0-0.1,0.1c-0.1,0-0.1,0.1-0.2,0.1c0,0-0.1,0.1-0.1,0.1 c0,0.1-0.1,0.1-0.1,0.2c0,0,0,0.1-0.1,0.1c0,0.1-0.1,0.2-0.1,0.3c0,0,0,0,0,0v25.6L0.9,44c0,0,0,0,0,0c0,0-0.1,0-0.1,0.1 c-0.1,0-0.1,0.1-0.2,0.1c0,0-0.1,0.1-0.1,0.1c-0.1,0.1-0.1,0.1-0.1,0.2c0,0,0,0.1,0,0.1c0,0.1-0.1,0.2-0.1,0.3c0,0,0,0,0,0v26.3 c0,0,0,0,0,0c0,0.1,0,0.1,0,0.2c0,0.1,0,0.1,0,0.2c0,0.1,0.1,0.1,0.1,0.1c0,0,0.1,0.1,0.1,0.1c0,0,0.1,0.1,0.1,0.1 c0.1,0,0.1,0.1,0.2,0.1c0,0,0,0,0,0l20.6,6.3c0.1,0,0.2,0,0.3,0c0.1,0,0.2,0,0.3,0l20.4-6.2l20.4,6.2c0.1,0,0.2,0,0.3,0s0.2,0,0.3,0 L84.1,72c0,0,0,0,0,0c0.1,0,0.1-0.1,0.2-0.1c0,0,0.1-0.1,0.1-0.1c0,0,0.1-0.1,0.1-0.1c0,0,0.1-0.1,0.1-0.1c0,0,0-0.1,0-0.2 c0-0.1,0-0.1,0-0.2c0,0,0,0,0,0V44.9z M2.1,46.1l18.8,5.8v24.4L2.1,70.5V46.1z M22.8,51.8l18.8-5.8v24.4l-18.8,5.8V51.8z M62.2,37.9 l-8.8,2.7l-10,3.1V19.2l18.8-5.8V37.9z M41.6,43.6l-18.8-5.8V13.5l18.8,5.8V43.6z M43.4,46.1l18.8,5.8v24.4l-18.8-5.8V46.1z M64.1,51.8l18.8-5.8v24.4l-18.8,5.8V51.8z M63.1,50.2l-17.5-5.4l17.5-5.4l17.5,5.4L63.1,50.2z M42.5,6.9l17.6,5.4l-17.6,5.4 L25,12.2L42.5,6.9z M21.9,39.5l17.5,5.4l-17.5,5.4L4.3,44.8L21.9,39.5z"></path> </svg> 